{
	"asset":{
		"generator":"Khronos glTF Blender I/O v4.0.44",
		"version":"2.0"
	},
	"scene":0,
	"scenes":[
		{
			"name":"Scene",
			"nodes":[
				19
			]
		}
	],
	"nodes":[
		{
			"mesh":0,
			"name":"Object_9",
			"rotation":[
				0,
				-0.7071068286895752,
				0,
				0.7071068286895752
			],
			"translation":[
				0.019514434039592743,
				-0.03737693279981613,
				0.8955153226852417
			]
		},
		{
			"children":[
				0
			],
			"name":"Cube.030_4",
			"rotation":[
				0,
				0,
				-0.008726544678211212,
				0.9999619126319885
			],
			"translation":[
				-0.01981048844754696,
				0.03671671077609062,
				-0.8853222131729126
			]
		},
		{
			"name":"Cube.031_5",
			"translation":[
				-0.01981048844754696,
				0.03671671077609062,
				-0.8853222131729126
			]
		},
		{
			"name":"Cube.032_6",
			"translation":[
				-0.01981048844754696,
				0.03671671077609062,
				-0.8853222131729126
			]
		},
		{
			"name":"Cube.033_7",
			"translation":[
				-0.01981048844754696,
				0.03671671077609062,
				-0.8853222131729126
			]
		},
		{
			"name":"Cube.034_8",
			"translation":[
				-0.01981048844754696,
				0.03671671077609062,
				-0.8853222131729126
			]
		},
		{
			"name":"Cube.035_9",
			"translation":[
				-0.01981048844754696,
				0.03671671077609062,
				-0.8853222131729126
			]
		},
		{
			"name":"Cube.036_10",
			"translation":[
				-0.01981048844754696,
				0.03671671077609062,
				-0.8853222131729126
			]
		},
		{
			"name":"Cube.037_11",
			"translation":[
				-0.01981048844754696,
				0.03671671077609062,
				-0.8853222131729126
			]
		},
		{
			"name":"Cube.038_12",
			"translation":[
				-0.01981048844754696,
				0.03671671077609062,
				-0.8853222131729126
			]
		},
		{
			"name":"Cube.039_16",
			"rotation":[
				0,
				-0.01586509682238102,
				0,
				0.9998741745948792
			],
			"scale":[
				1,
				0.75,
				1
			],
			"translation":[
				-0.01981048844754696,
				0.03671671077609062,
				-0.8853221535682678
			]
		},
		{
			"name":"Cube.040_15",
			"rotation":[
				0.004363309592008591,
				0,
				0,
				0.9999905824661255
			],
			"scale":[
				0.9697237014770508,
				0.7592626810073853,
				1.0123504400253296
			],
			"translation":[
				-0.019810492172837257,
				0.036716707050800323,
				-0.8853222131729126
			]
		},
		{
			"name":"Cube.041_14",
			"rotation":[
				0,
				-0.00455956906080246,
				0,
				0.9999896883964539
			],
			"scale":[
				0.9697237610816956,
				0.7592626810073853,
				1.0123502016067505
			],
			"translation":[
				-0.019810497760772705,
				0.036716707050800323,
				-0.8853221535682678
			]
		},
		{
			"name":"Cube.042_13",
			"rotation":[
				0.007807210087776184,
				-0.003269854700192809,
				2.5542392904753797e-05,
				0.99996417760849
			],
			"translation":[
				-0.01981048658490181,
				0.036716707050800323,
				-0.8853222131729126
			]
		},
		{
			"name":"Plane.008_2",
			"translation":[
				-0.01981048844754696,
				0.03671671077609062,
				-0.8853222131729126
			]
		},
		{
			"name":"Plane.009_3",
			"translation":[
				-0.01981048844754696,
				0.03671671077609062,
				-0.8853222131729126
			]
		},
		{
			"name":"Plane.010_17",
			"scale":[
				0.9684162139892578,
				0.9684162139892578,
				0.9849482178688049
			],
			"translation":[
				-0.019810490310192108,
				0.03671671450138092,
				-0.8853222727775574
			]
		},
		{
			"children":[
				1,
				2,
				3,
				4,
				5,
				6,
				7,
				8,
				9,
				10,
				11,
				12,
				13,
				14,
				15,
				16
			],
			"name":"GLTF_SceneRootNode",
			"rotation":[
				0.70710688829422,
				0,
				0,
				0.7071066498756409
			]
		},
		{
			"children":[
				17
			],
			"name":"root"
		},
		{
			"children":[
				18
			],
			"name":"Sketchfab_model",
			"rotation":[
				-0.70710688829422,
				0,
				0,
				0.7071066498756409
			]
		}
	],
	"materials":[
		{
			"doubleSided":true,
			"name":"Material.009",
			"pbrMetallicRoughness":{
				"baseColorTexture":{
					"index":0
				},
				"metallicFactor":0,
				"metallicRoughnessTexture":{
					"index":1
				}
			}
		},
		{
			"doubleSided":true,
			"name":"Material.003",
			"normalTexture":{
				"index":2
			},
			"pbrMetallicRoughness":{
				"baseColorFactor":[
					0.7603832483291626,
					0.7603832483291626,
					0.7603832483291626,
					1
				],
				"baseColorTexture":{
					"index":3
				},
				"metallicFactor":0,
				"metallicRoughnessTexture":{
					"index":4
				}
			}
		},
		{
			"doubleSided":true,
			"name":"Material.002",
			"normalTexture":{
				"index":5
			},
			"pbrMetallicRoughness":{
				"baseColorTexture":{
					"index":6
				},
				"metallicFactor":0,
				"metallicRoughnessTexture":{
					"index":7
				}
			}
		},
		{
			"doubleSided":true,
			"name":"Material.001",
			"normalTexture":{
				"index":8
			},
			"pbrMetallicRoughness":{
				"baseColorTexture":{
					"index":9
				},
				"metallicFactor":0,
				"metallicRoughnessTexture":{
					"index":10
				}
			}
		},
		{
			"doubleSided":true,
			"name":"Material.004",
			"normalTexture":{
				"index":11
			},
			"pbrMetallicRoughness":{
				"baseColorFactor":[
					0.7969548106193542,
					0.7969548106193542,
					0.7969548106193542,
					1
				],
				"baseColorTexture":{
					"index":12
				},
				"metallicFactor":0,
				"metallicRoughnessTexture":{
					"index":13
				}
			}
		},
		{
			"doubleSided":true,
			"name":"Material.006",
			"normalTexture":{
				"index":14,
				"scale":0.7603832483291626
			},
			"pbrMetallicRoughness":{
				"baseColorTexture":{
					"index":15
				},
				"metallicFactor":0,
				"metallicRoughnessTexture":{
					"index":16
				}
			}
		},
		{
			"doubleSided":true,
			"emissiveFactor":[
				1,
				1,
				1
			],
			"emissiveTexture":{
				"index":17,
				"texCoord":1
			},
			"name":"Material.011",
			"pbrMetallicRoughness":{
				"baseColorFactor":[
					0.7238117456436157,
					0.7238117456436157,
					0.7238117456436157,
					1
				],
				"baseColorTexture":{
					"index":18
				},
				"metallicFactor":0,
				"metallicRoughnessTexture":{
					"index":19,
					"texCoord":1
				}
			}
		}
	],
	"meshes":[
		{
			"name":"Object_3",
			"primitives":[
				{
					"attributes":{
						"POSITION":0,
						"NORMAL":1,
						"TEXCOORD_0":2,
						"TEXCOORD_1":3,
						"TEXCOORD_2":4,
						"TEXCOORD_3":5,
						"TEXCOORD_4":6,
						"TEXCOORD_5":7,
						"TEXCOORD_6":8
					},
					"indices":9,
					"material":0
				},
				{
					"attributes":{
						"POSITION":10,
						"NORMAL":11,
						"TEXCOORD_0":12,
						"TEXCOORD_1":13,
						"TEXCOORD_2":14,
						"TEXCOORD_3":15,
						"TEXCOORD_4":16,
						"TEXCOORD_5":17,
						"TEXCOORD_6":18
					},
					"indices":19,
					"material":1
				},
				{
					"attributes":{
						"POSITION":20,
						"NORMAL":21,
						"TEXCOORD_0":22,
						"TEXCOORD_1":23,
						"TEXCOORD_2":24,
						"TEXCOORD_3":25,
						"TEXCOORD_4":26,
						"TEXCOORD_5":27,
						"TEXCOORD_6":28
					},
					"indices":29,
					"material":2
				},
				{
					"attributes":{
						"POSITION":30,
						"NORMAL":31,
						"TEXCOORD_0":32,
						"TEXCOORD_1":33,
						"TEXCOORD_2":34,
						"TEXCOORD_3":35,
						"TEXCOORD_4":36,
						"TEXCOORD_5":37,
						"TEXCOORD_6":38
					},
					"indices":39,
					"material":3
				},
				{
					"attributes":{
						"POSITION":40,
						"NORMAL":41,
						"TEXCOORD_0":42,
						"TEXCOORD_1":43,
						"TEXCOORD_2":44,
						"TEXCOORD_3":45,
						"TEXCOORD_4":46,
						"TEXCOORD_5":47,
						"TEXCOORD_6":48
					},
					"indices":49,
					"material":4
				},
				{
					"attributes":{
						"POSITION":50,
						"NORMAL":51,
						"TEXCOORD_0":52,
						"TEXCOORD_1":53,
						"TEXCOORD_2":54,
						"TEXCOORD_3":55,
						"TEXCOORD_4":56,
						"TEXCOORD_5":57,
						"TEXCOORD_6":58
					},
					"indices":59,
					"material":5
				},
				{
					"attributes":{
						"POSITION":60,
						"NORMAL":61,
						"TEXCOORD_0":62,
						"TEXCOORD_1":63,
						"TEXCOORD_2":64,
						"TEXCOORD_3":65,
						"TEXCOORD_4":66,
						"TEXCOORD_5":67,
						"TEXCOORD_6":68
					},
					"indices":69,
					"material":6
				}
			]
		}
	],
	"textures":[
		{
			"sampler":0,
			"source":0
		},
		{
			"sampler":0,
			"source":1
		},
		{
			"sampler":0,
			"source":2
		},
		{
			"sampler":0,
			"source":0
		},
		{
			"sampler":0,
			"source":1
		},
		{
			"sampler":0,
			"source":2
		},
		{
			"sampler":0,
			"source":0
		},
		{
			"sampler":0,
			"source":1
		},
		{
			"sampler":0,
			"source":2
		},
		{
			"sampler":0,
			"source":3
		},
		{
			"sampler":0,
			"source":1
		},
		{
			"sampler":0,
			"source":2
		},
		{
			"sampler":0,
			"source":0
		},
		{
			"sampler":0,
			"source":1
		},
		{
			"sampler":0,
			"source":4
		},
		{
			"sampler":0,
			"source":0
		},
		{
			"sampler":0,
			"source":1
		},
		{
			"sampler":0,
			"source":5
		},
		{
			"sampler":0,
			"source":0
		},
		{
			"sampler":0,
			"source":6
		}
	],
	"images":[
		{
			"mimeType":"image/png",
			"name":"Material.003_baseColor",
			"uri":"Material_003_baseColor.png"
		},
		{
			"mimeType":"image/png",
			"name":"Material.003_metallicRoughness",
			"uri":"Material_003_metallicRoughness.png"
		},
		{
			"mimeType":"image/png",
			"name":"Material.003_normal",
			"uri":"Material_003_normal.png"
		},
		{
			"mimeType":"image/png",
			"name":"Material.001_baseColor",
			"uri":"Material_001_baseColor.png"
		},
		{
			"mimeType":"image/png",
			"name":"Material.006_normal",
			"uri":"Material_006_normal.png"
		},
		{
			"mimeType":"image/png",
			"name":"Material.011_emissive",
			"uri":"Material_011_emissive.png"
		},
		{
			"mimeType":"image/png",
			"name":"Material.011_metallicRoughness",
			"uri":"Material_011_metallicRoughness.png"
		}
	],
	"accessors":[
		{
			"bufferView":0,
			"componentType":5126,
			"count":5825,
			"max":[
				0.08688799291849136,
				0.0033045378513634205,
				0.08722865581512451
			],
			"min":[
				0.040675897151231766,
				-0.03472122550010681,
				-0.08796641230583191
			],
			"type":"VEC3"
		},
		{
			"bufferView":1,
			"componentType":5126,
			"count":5825,
			"type":"VEC3"
		},
		{
			"bufferView":2,
			"componentType":5126,
			"count":5825,
			"type":"VEC2"
		},
		{
			"bufferView":3,
			"componentType":5126,
			"count":5825,
			"type":"VEC2"
		},
		{
			"bufferView":4,
			"componentType":5126,
			"count":5825,
			"type":"VEC2"
		},
		{
			"bufferView":5,
			"componentType":5126,
			"count":5825,
			"type":"VEC2"
		},
		{
			"bufferView":6,
			"componentType":5126,
			"count":5825,
			"type":"VEC2"
		},
		{
			"bufferView":7,
			"componentType":5126,
			"count":5825,
			"type":"VEC2"
		},
		{
			"bufferView":8,
			"componentType":5126,
			"count":5825,
			"type":"VEC2"
		},
		{
			"bufferView":9,
			"componentType":5123,
			"count":29664,
			"type":"SCALAR"
		},
		{
			"bufferView":10,
			"componentType":5126,
			"count":6211,
			"max":[
				0.03517938777804375,
				0.031055297702550888,
				0.09304016083478928
			],
			"min":[
				-0.10688257217407227,
				0.003245231695473194,
				-0.09655864536762238
			],
			"type":"VEC3"
		},
		{
			"bufferView":11,
			"componentType":5126,
			"count":6211,
			"type":"VEC3"
		},
		{
			"bufferView":12,
			"componentType":5126,
			"count":6211,
			"type":"VEC2"
		},
		{
			"bufferView":13,
			"componentType":5126,
			"count":6211,
			"type":"VEC2"
		},
		{
			"bufferView":14,
			"componentType":5126,
			"count":6211,
			"type":"VEC2"
		},
		{
			"bufferView":15,
			"componentType":5126,
			"count":6211,
			"type":"VEC2"
		},
		{
			"bufferView":16,
			"componentType":5126,
			"count":6211,
			"type":"VEC2"
		},
		{
			"bufferView":17,
			"componentType":5126,
			"count":6211,
			"type":"VEC2"
		},
		{
			"bufferView":18,
			"componentType":5126,
			"count":6211,
			"type":"VEC2"
		},
		{
			"bufferView":19,
			"componentType":5123,
			"count":32016,
			"type":"SCALAR"
		},
		{
			"bufferView":20,
			"componentType":5126,
			"count":270,
			"max":[
				0.03411347046494484,
				0.02503863349556923,
				0.020264053717255592
			],
			"min":[
				0.030633611604571342,
				0.008704661391675472,
				-0.023351939395070076
			],
			"type":"VEC3"
		},
		{
			"bufferView":21,
			"componentType":5126,
			"count":270,
			"type":"VEC3"
		},
		{
			"bufferView":22,
			"componentType":5126,
			"count":270,
			"type":"VEC2"
		},
		{
			"bufferView":23,
			"componentType":5126,
			"count":270,
			"type":"VEC2"
		},
		{
			"bufferView":24,
			"componentType":5126,
			"count":270,
			"type":"VEC2"
		},
		{
			"bufferView":25,
			"componentType":5126,
			"count":270,
			"type":"VEC2"
		},
		{
			"bufferView":26,
			"componentType":5126,
			"count":270,
			"type":"VEC2"
		},
		{
			"bufferView":27,
			"componentType":5126,
			"count":270,
			"type":"VEC2"
		},
		{
			"bufferView":28,
			"componentType":5126,
			"count":270,
			"type":"VEC2"
		},
		{
			"bufferView":29,
			"componentType":5123,
			"count":1128,
			"type":"SCALAR"
		},
		{
			"bufferView":30,
			"componentType":5126,
			"count":8436,
			"max":[
				0.09907956421375275,
				0.030624322593212128,
				0.11579176783561707
			],
			"min":[
				-0.1298586130142212,
				-0.07078231871128082,
				-0.1184099018573761
			],
			"type":"VEC3"
		},
		{
			"bufferView":31,
			"componentType":5126,
			"count":8436,
			"type":"VEC3"
		},
		{
			"bufferView":32,
			"componentType":5126,
			"count":8436,
			"type":"VEC2"
		},
		{
			"bufferView":33,
			"componentType":5126,
			"count":8436,
			"type":"VEC2"
		},
		{
			"bufferView":34,
			"componentType":5126,
			"count":8436,
			"type":"VEC2"
		},
		{
			"bufferView":35,
			"componentType":5126,
			"count":8436,
			"type":"VEC2"
		},
		{
			"bufferView":36,
			"componentType":5126,
			"count":8436,
			"type":"VEC2"
		},
		{
			"bufferView":37,
			"componentType":5126,
			"count":8436,
			"type":"VEC2"
		},
		{
			"bufferView":38,
			"componentType":5126,
			"count":8436,
			"type":"VEC2"
		},
		{
			"bufferView":39,
			"componentType":5123,
			"count":44844,
			"type":"SCALAR"
		},
		{
			"bufferView":40,
			"componentType":5126,
			"count":4315,
			"max":[
				0.012548894621431828,
				0.03369879722595215,
				0.0668831542134285
			],
			"min":[
				-0.07279370725154877,
				0.016199463978409767,
				-0.06779183447360992
			],
			"type":"VEC3"
		},
		{
			"bufferView":41,
			"componentType":5126,
			"count":4315,
			"type":"VEC3"
		},
		{
			"bufferView":42,
			"componentType":5126,
			"count":4315,
			"type":"VEC2"
		},
		{
			"bufferView":43,
			"componentType":5126,
			"count":4315,
			"type":"VEC2"
		},
		{
			"bufferView":44,
			"componentType":5126,
			"count":4315,
			"type":"VEC2"
		},
		{
			"bufferView":45,
			"componentType":5126,
			"count":4315,
			"type":"VEC2"
		},
		{
			"bufferView":46,
			"componentType":5126,
			"count":4315,
			"type":"VEC2"
		},
		{
			"bufferView":47,
			"componentType":5126,
			"count":4315,
			"type":"VEC2"
		},
		{
			"bufferView":48,
			"componentType":5126,
			"count":4315,
			"type":"VEC2"
		},
		{
			"bufferView":49,
			"componentType":5123,
			"count":25056,
			"type":"SCALAR"
		},
		{
			"bufferView":50,
			"componentType":5126,
			"count":4010,
			"max":[
				0.023078765720129013,
				0.026696398854255676,
				0.0764717310667038
			],
			"min":[
				-0.09046442806720734,
				0.0226341113448143,
				-0.07816997915506363
			],
			"type":"VEC3"
		},
		{
			"bufferView":51,
			"componentType":5126,
			"count":4010,
			"type":"VEC3"
		},
		{
			"bufferView":52,
			"componentType":5126,
			"count":4010,
			"type":"VEC2"
		},
		{
			"bufferView":53,
			"componentType":5126,
			"count":4010,
			"type":"VEC2"
		},
		{
			"bufferView":54,
			"componentType":5126,
			"count":4010,
			"type":"VEC2"
		},
		{
			"bufferView":55,
			"componentType":5126,
			"count":4010,
			"type":"VEC2"
		},
		{
			"bufferView":56,
			"componentType":5126,
			"count":4010,
			"type":"VEC2"
		},
		{
			"bufferView":57,
			"componentType":5126,
			"count":4010,
			"type":"VEC2"
		},
		{
			"bufferView":58,
			"componentType":5126,
			"count":4010,
			"type":"VEC2"
		},
		{
			"bufferView":59,
			"componentType":5123,
			"count":13296,
			"type":"SCALAR"
		},
		{
			"bufferView":60,
			"componentType":5126,
			"count":934,
			"max":[
				0.03401317819952965,
				0.02477104775607586,
				0.01996641978621483
			],
			"min":[
				0.030716508626937866,
				0.008955436758697033,
				-0.023025143891572952
			],
			"type":"VEC3"
		},
		{
			"bufferView":61,
			"componentType":5126,
			"count":934,
			"type":"VEC3"
		},
		{
			"bufferView":62,
			"componentType":5126,
			"count":934,
			"type":"VEC2"
		},
		{
			"bufferView":63,
			"componentType":5126,
			"count":934,
			"type":"VEC2"
		},
		{
			"bufferView":64,
			"componentType":5126,
			"count":934,
			"type":"VEC2"
		},
		{
			"bufferView":65,
			"componentType":5126,
			"count":934,
			"type":"VEC2"
		},
		{
			"bufferView":66,
			"componentType":5126,
			"count":934,
			"type":"VEC2"
		},
		{
			"bufferView":67,
			"componentType":5126,
			"count":934,
			"type":"VEC2"
		},
		{
			"bufferView":68,
			"componentType":5126,
			"count":934,
			"type":"VEC2"
		},
		{
			"bufferView":69,
			"componentType":5123,
			"count":1440,
			"type":"SCALAR"
		}
	],
	"bufferViews":[
		{
			"buffer":0,
			"byteLength":69900,
			"byteOffset":0,
			"target":34962
		},
		{
			"buffer":0,
			"byteLength":69900,
			"byteOffset":69900,
			"target":34962
		},
		{
			"buffer":0,
			"byteLength":46600,
			"byteOffset":139800,
			"target":34962
		},
		{
			"buffer":0,
			"byteLength":46600,
			"byteOffset":186400,
			"target":34962
		},
		{
			"buffer":0,
			"byteLength":46600,
			"byteOffset":233000,
			"target":34962
		},
		{
			"buffer":0,
			"byteLength":46600,
			"byteOffset":279600,
			"target":34962
		},
		{
			"buffer":0,
			"byteLength":46600,
			"byteOffset":326200,
			"target":34962
		},
		{
			"buffer":0,
			"byteLength":46600,
			"byteOffset":372800,
			"target":34962
		},
		{
			"buffer":0,
			"byteLength":46600,
			"byteOffset":419400,
			"target":34962
		},
		{
			"buffer":0,
			"byteLength":59328,
			"byteOffset":466000,
			"target":34963
		},
		{
			"buffer":0,
			"byteLength":74532,
			"byteOffset":525328,
			"target":34962
		},
		{
			"buffer":0,
			"byteLength":74532,
			"byteOffset":599860,
			"target":34962
		},
		{
			"buffer":0,
			"byteLength":49688,
			"byteOffset":674392,
			"target":34962
		},
		{
			"buffer":0,
			"byteLength":49688,
			"byteOffset":724080,
			"target":34962
		},
		{
			"buffer":0,
			"byteLength":49688,
			"byteOffset":773768,
			"target":34962
		},
		{
			"buffer":0,
			"byteLength":49688,
			"byteOffset":823456,
			"target":34962
		},
		{
			"buffer":0,
			"byteLength":49688,
			"byteOffset":873144,
			"target":34962
		},
		{
			"buffer":0,
			"byteLength":49688,
			"byteOffset":922832,
			"target":34962
		},
		{
			"buffer":0,
			"byteLength":49688,
			"byteOffset":972520,
			"target":34962
		},
		{
			"buffer":0,
			"byteLength":64032,
			"byteOffset":1022208,
			"target":34963
		},
		{
			"buffer":0,
			"byteLength":3240,
			"byteOffset":1086240,
			"target":34962
		},
		{
			"buffer":0,
			"byteLength":3240,
			"byteOffset":1089480,
			"target":34962
		},
		{
			"buffer":0,
			"byteLength":2160,
			"byteOffset":1092720,
			"target":34962
		},
		{
			"buffer":0,
			"byteLength":2160,
			"byteOffset":1094880,
			"target":34962
		},
		{
			"buffer":0,
			"byteLength":2160,
			"byteOffset":1097040,
			"target":34962
		},
		{
			"buffer":0,
			"byteLength":2160,
			"byteOffset":1099200,
			"target":34962
		},
		{
			"buffer":0,
			"byteLength":2160,
			"byteOffset":1101360,
			"target":34962
		},
		{
			"buffer":0,
			"byteLength":2160,
			"byteOffset":1103520,
			"target":34962
		},
		{
			"buffer":0,
			"byteLength":2160,
			"byteOffset":1105680,
			"target":34962
		},
		{
			"buffer":0,
			"byteLength":2256,
			"byteOffset":1107840,
			"target":34963
		},
		{
			"buffer":0,
			"byteLength":101232,
			"byteOffset":1110096,
			"target":34962
		},
		{
			"buffer":0,
			"byteLength":101232,
			"byteOffset":1211328,
			"target":34962
		},
		{
			"buffer":0,
			"byteLength":67488,
			"byteOffset":1312560,
			"target":34962
		},
		{
			"buffer":0,
			"byteLength":67488,
			"byteOffset":1380048,
			"target":34962
		},
		{
			"buffer":0,
			"byteLength":67488,
			"byteOffset":1447536,
			"target":34962
		},
		{
			"buffer":0,
			"byteLength":67488,
			"byteOffset":1515024,
			"target":34962
		},
		{
			"buffer":0,
			"byteLength":67488,
			"byteOffset":1582512,
			"target":34962
		},
		{
			"buffer":0,
			"byteLength":67488,
			"byteOffset":1650000,
			"target":34962
		},
		{
			"buffer":0,
			"byteLength":67488,
			"byteOffset":1717488,
			"target":34962
		},
		{
			"buffer":0,
			"byteLength":89688,
			"byteOffset":1784976,
			"target":34963
		},
		{
			"buffer":0,
			"byteLength":51780,
			"byteOffset":1874664,
			"target":34962
		},
		{
			"buffer":0,
			"byteLength":51780,
			"byteOffset":1926444,
			"target":34962
		},
		{
			"buffer":0,
			"byteLength":34520,
			"byteOffset":1978224,
			"target":34962
		},
		{
			"buffer":0,
			"byteLength":34520,
			"byteOffset":2012744,
			"target":34962
		},
		{
			"buffer":0,
			"byteLength":34520,
			"byteOffset":2047264,
			"target":34962
		},
		{
			"buffer":0,
			"byteLength":34520,
			"byteOffset":2081784,
			"target":34962
		},
		{
			"buffer":0,
			"byteLength":34520,
			"byteOffset":2116304,
			"target":34962
		},
		{
			"buffer":0,
			"byteLength":34520,
			"byteOffset":2150824,
			"target":34962
		},
		{
			"buffer":0,
			"byteLength":34520,
			"byteOffset":2185344,
			"target":34962
		},
		{
			"buffer":0,
			"byteLength":50112,
			"byteOffset":2219864,
			"target":34963
		},
		{
			"buffer":0,
			"byteLength":48120,
			"byteOffset":2269976,
			"target":34962
		},
		{
			"buffer":0,
			"byteLength":48120,
			"byteOffset":2318096,
			"target":34962
		},
		{
			"buffer":0,
			"byteLength":32080,
			"byteOffset":2366216,
			"target":34962
		},
		{
			"buffer":0,
			"byteLength":32080,
			"byteOffset":2398296,
			"target":34962
		},
		{
			"buffer":0,
			"byteLength":32080,
			"byteOffset":2430376,
			"target":34962
		},
		{
			"buffer":0,
			"byteLength":32080,
			"byteOffset":2462456,
			"target":34962
		},
		{
			"buffer":0,
			"byteLength":32080,
			"byteOffset":2494536,
			"target":34962
		},
		{
			"buffer":0,
			"byteLength":32080,
			"byteOffset":2526616,
			"target":34962
		},
		{
			"buffer":0,
			"byteLength":32080,
			"byteOffset":2558696,
			"target":34962
		},
		{
			"buffer":0,
			"byteLength":26592,
			"byteOffset":2590776,
			"target":34963
		},
		{
			"buffer":0,
			"byteLength":11208,
			"byteOffset":2617368,
			"target":34962
		},
		{
			"buffer":0,
			"byteLength":11208,
			"byteOffset":2628576,
			"target":34962
		},
		{
			"buffer":0,
			"byteLength":7472,
			"byteOffset":2639784,
			"target":34962
		},
		{
			"buffer":0,
			"byteLength":7472,
			"byteOffset":2647256,
			"target":34962
		},
		{
			"buffer":0,
			"byteLength":7472,
			"byteOffset":2654728,
			"target":34962
		},
		{
			"buffer":0,
			"byteLength":7472,
			"byteOffset":2662200,
			"target":34962
		},
		{
			"buffer":0,
			"byteLength":7472,
			"byteOffset":2669672,
			"target":34962
		},
		{
			"buffer":0,
			"byteLength":7472,
			"byteOffset":2677144,
			"target":34962
		},
		{
			"buffer":0,
			"byteLength":7472,
			"byteOffset":2684616,
			"target":34962
		},
		{
			"buffer":0,
			"byteLength":2880,
			"byteOffset":2692088,
			"target":34963
		}
	],
	"samplers":[
		{
			"magFilter":9729,
			"minFilter":9987
		}
	],
	"buffers":[
		{
			"byteLength":2694968,
			"uri":"untitled.bin"
		}
	]
}
