{
	"asset":{
		"generator":"Khronos glTF Blender I/O v4.0.44",
		"version":"2.0"
	},
	"scene":0,
	"scenes":[
		{
			"name":"Scene",
			"nodes":[
				2
			]
		}
	],
	"nodes":[
		{
			"mesh":0,
			"name":"Object_2",
			"rotation":[
				-0.7071066498756409,
				0,
				0,
				0.70710688829422
			]
		},
		{
			"children":[
				0
			],
			"name":"NAMDrum01.obj.cleaner.materialmerger.gles"
		},
		{
			"children":[
				1
			],
			"name":"Sketchfab_model",
			"rotation":[
				-1,
				0,
				0,
				2.220446049250313e-16
			],
			"translation":[
				0,
				-9.914615631103516,
				10.987322807312012
			]
		}
	],
	"materials":[
		{
			"doubleSided":true,
			"name":"NAMDrum01_Model_3_u1_v1",
			"pbrMetallicRoughness":{
				"baseColorTexture":{
					"index":0
				},
				"metallicFactor":0,
				"roughnessFactor":0.7976442575454712
			}
		}
	],
	"meshes":[
		{
			"name":"Object_0",
			"primitives":[
				{
					"attributes":{
						"POSITION":0,
						"NORMAL":1,
						"TEXCOORD_0":2
					},
					"indices":3,
					"material":0
				}
			]
		}
	],
	"textures":[
		{
			"sampler":0,
			"source":0
		}
	],
	"images":[
		{
			"mimeType":"image/jpeg",
			"name":"NAMDrum01_Model_3_u1_v1_baseColor",
			"uri":"NAMDrum01_Model_3_u1_v1_baseColor.jpg"
		}
	],
	"accessors":[
		{
			"bufferView":0,
			"componentType":5126,
			"count":9781,
			"max":[
				6.9904398918151855,
				-2.087451934814453,
				9.452485084533691
			],
			"min":[
				-8.416799545288086,
				-18.814529418945312,
				-8.379756927490234
			],
			"type":"VEC3"
		},
		{
			"bufferView":1,
			"componentType":5126,
			"count":9781,
			"type":"VEC3"
		},
		{
			"bufferView":2,
			"componentType":5126,
			"count":9781,
			"type":"VEC2"
		},
		{
			"bufferView":3,
			"componentType":5123,
			"count":23100,
			"type":"SCALAR"
		}
	],
	"bufferViews":[
		{
			"buffer":0,
			"byteLength":117372,
			"byteOffset":0,
			"target":34962
		},
		{
			"buffer":0,
			"byteLength":117372,
			"byteOffset":117372,
			"target":34962
		},
		{
			"buffer":0,
			"byteLength":78248,
			"byteOffset":234744,
			"target":34962
		},
		{
			"buffer":0,
			"byteLength":46200,
			"byteOffset":312992,
			"target":34963
		}
	],
	"samplers":[
		{
			"magFilter":9729,
			"minFilter":9987
		}
	],
	"buffers":[
		{
			"byteLength":359192,
			"uri":"untitled.bin"
		}
	]
}
